<mxfile host="app.diagrams.net" modified="2023-12-18T14:46:49.162Z" agent="Mozilla/5.0 (Windows NT 10.0; Win64; x64) AppleWebKit/537.36 (KHTML, like Gecko) Chrome/120.0.0.0 Safari/537.36 Edg/120.0.0.0" version="22.1.11" etag="ca5vmPMMKJs6xl0VuFVr" type="github">
  <diagram name="PÃ¡gina-1" id="Q4-o3Sj0hg55mKgPj0Jn">
    <mxGraphModel>
      <root>
        <mxCell id="0" />
        <mxCell id="1" parent="0" />
      </root>
    </mxGraphModel>
  </diagram>
</mxfile>
